<svg xmlns="http://www.w3.org/2000/svg" viewBox="0 0 512 512" role="img" aria-label="CopyCodeAI">
  <defs>
    <linearGradient id="bg" x1="0%" y1="0%" x2="100%" y2="100%">
      <stop offset="0%" stop-color="#059669"/>
      <stop offset="100%" stop-color="#0f766e"/>
    </linearGradient>
  </defs>
  <rect width="512" height="512" rx="120" fill="url(#bg)"/>
  <path d="M158 186c0-15 10-28 25-28h16c11 0 20 9 20 20 0 11-9 20-20 20h-2c-20 0-34 15-34 36s14 36 34 36h2c11 0 20 9 20 20 0 11-9 20-20 20h-16c-15 0-25-13-25-28v-96zm140-28h16c15 0 25 13 25 28v96c0 15-10 28-25 28h-16c-11 0-20-9-20-20 0-11 9-20 20-20h2c20 0 34-15 34-36s-14-36-34-36h-2c-11 0-20-9-20-20 0-11 9-20 20-20z" fill="#f8fafc"/>
  <path d="M216 326h80" stroke="#e2e8f0" stroke-width="20" stroke-linecap="round"/>
</svg>
